<svg width="23" height="22" viewBox="0 0 23 22" fill="none" xmlns="http://www.w3.org/2000/svg">
<path d="M16.5574 10.9989V1L12.6681 3.22199L8.77872 1L4.88936 3.22199L1 1L1 16.1979C1 17.878 1 18.7181 1.32698 19.3598C1.6146 19.9243 2.07354 20.3833 2.63803 20.6709C3.27976 20.9979 4.11984 20.9979 5.8 20.9979L18.7799 20.9979" stroke="#6C7890" stroke-width="2" stroke-linecap="round" stroke-linejoin="round"/>
<path d="M5.44531 7.66797L9.8903 7.66797" stroke="#6C7890" stroke-width="2" stroke-linecap="round" stroke-linejoin="round"/>
<path d="M8.78027 12.1113L12.114 12.1113" stroke="#6C7890" stroke-width="2" stroke-linecap="round" stroke-linejoin="round"/>
<path d="M8.78027 16.5547L12.114 16.5547" stroke="#6C7890" stroke-width="2" stroke-linecap="round" stroke-linejoin="round"/>
<path d="M16.5566 11.001H21.0016V18.7774C21.0016 20.0049 20.0066 20.9999 18.7791 20.9999V20.9999C17.5517 20.9999 16.5566 20.0049 16.5566 18.7774V11.001Z" stroke="#6C7890" stroke-width="2" stroke-linecap="round" stroke-linejoin="round"/>
<ellipse cx="5.44621" cy="12.112" rx="1.11125" ry="1.11099" fill="#6C7890"/>
<ellipse cx="5.44621" cy="16.5563" rx="1.11125" ry="1.11099" fill="#6C7890"/>
</svg>
