<svg width="18" height="22" viewBox="0 0 18 22" fill="none" xmlns="http://www.w3.org/2000/svg">
<path d="M2.13251 8.91068C1.99438 4.81174 4.89874 1 9 1V1C13.1013 1 16.0056 4.81174 15.8675 8.91068C15.8607 9.11152 15.8571 9.30834 15.8571 9.49996C15.8571 11.3889 16.2055 13.7827 16.5175 15.5483C16.7406 16.8105 15.7816 17.9999 14.4999 17.9999H3.50011C2.21841 17.9999 1.25944 16.8105 1.48251 15.5483C1.79455 13.7827 2.14286 11.3889 2.14286 9.49996C2.14286 9.30834 2.13927 9.11152 2.13251 8.91068Z" stroke="#23365B" stroke-width="2"/>
<path d="M4.99994 18.001H12.9999V18.001C12.9999 19.6578 11.6568 21.001 9.99995 21.001H7.99992C6.34308 21.001 4.99994 19.6578 4.99994 18.001V18.001Z" stroke="#23365B" stroke-width="2"/>
</svg>
