<svg width="16" height="18" viewBox="0 0 16 18" fill="none" xmlns="http://www.w3.org/2000/svg">
<path d="M1 7.11713C1 5.70285 1 4.99572 1.23366 4.43886C1.53782 3.71397 2.11436 3.13743 2.83925 2.83327C3.39611 2.59961 4.10325 2.59961 5.51752 2.59961L10.2 2.59961C11.8802 2.59961 12.7202 2.59961 13.362 2.92659C13.9265 3.21421 14.3854 3.67315 14.673 4.23764C15 4.87937 15 5.71945 15 7.39961L15 12.1992C15 13.8794 15 14.7194 14.673 15.3612C14.3854 15.9257 13.9265 16.3846 13.362 16.6722C12.7202 16.9992 11.8802 16.9992 10.2 16.9992H5.8C4.11984 16.9992 3.27976 16.9992 2.63803 16.6722C2.07354 16.3846 1.6146 15.9257 1.32698 15.3612C1 14.7194 1 13.8794 1 12.1992L1 7.11713V7.11713Z" stroke="#6C7890" stroke-width="1.8" stroke-linecap="round" stroke-linejoin="round"/>
<path d="M4.88901 1L4.88901 3.39993" stroke="#6C7890" stroke-width="1.8" stroke-linecap="round" stroke-linejoin="round"/>
<path d="M11.1113 1L11.1113 3.39993" stroke="#6C7890" stroke-width="1.8" stroke-linecap="round" stroke-linejoin="round"/>
<path d="M11.8887 6.59961L4.1109 6.59961" stroke="#6C7890" stroke-width="1.8" stroke-linecap="round" stroke-linejoin="round"/>
<path d="M11.8888 13.8008L10.3332 13.8008" stroke="#6C7890" stroke-width="1.8" stroke-linecap="round" stroke-linejoin="round"/>
</svg>
