<svg width="18" height="20" viewBox="0 0 18 20" fill="none" xmlns="http://www.w3.org/2000/svg">
<path d="M1 7.88216C1 6.87616 1 6.37316 1.08999 5.95611C1.42132 4.42058 2.62077 3.22113 4.15631 2.88979C4.57335 2.7998 5.07635 2.7998 6.08235 2.7998H10.6C12.8402 2.7998 13.9603 2.7998 14.816 3.23578C15.5686 3.61927 16.1805 4.23119 16.564 4.98384C17 5.83949 17 6.95959 17 9.19981V12.5998C17 14.84 17 15.9601 16.564 16.8158C16.1805 17.5684 15.5686 18.1803 14.816 18.5638C13.9603 18.9998 12.8402 18.9998 10.6 18.9998H7.4C5.15979 18.9998 4.03968 18.9998 3.18404 18.5638C2.43139 18.1803 1.81947 17.5684 1.43597 16.8158C1 15.9601 1 14.84 1 12.5998V7.88216V7.88216Z" stroke="#A6B0C2" stroke-width="1.8" stroke-linecap="round" stroke-linejoin="round"/>
<path d="M5.44434 1L5.44434 3.7" stroke="#A6B0C2" stroke-width="1.8" stroke-linecap="round" stroke-linejoin="round"/>
<path d="M12.5557 1L12.5557 3.7" stroke="#A6B0C2" stroke-width="1.8" stroke-linecap="round" stroke-linejoin="round"/>
<path d="M13.4436 7.2998H4.55469" stroke="#A6B0C2" stroke-width="1.8" stroke-linecap="round" stroke-linejoin="round"/>
<path d="M13.4438 15.4004L11.666 15.4004" stroke="#A6B0C2" stroke-width="1.8" stroke-linecap="round" stroke-linejoin="round"/>
</svg>
