<svg width="10" height="8" viewBox="0 0 10 8" fill="none" xmlns="http://www.w3.org/2000/svg">
<path d="M1.65538 3.88317C1.31472 3.52122 0.745128 3.50396 0.383172 3.84462C0.0212154 4.18528 0.00395519 4.75487 0.34462 5.11683L1.65538 3.88317ZM3.35294 7L2.69756 7.61683C2.86764 7.79754 3.10478 7.9 3.35294 7.9C3.6011 7.9 3.83824 7.79754 4.00832 7.61683L3.35294 7ZM9.65538 1.61683C9.99605 1.25487 9.97878 0.685285 9.61683 0.34462C9.25487 0.00395519 8.68529 0.0212154 8.34462 0.383172L9.65538 1.61683ZM0.34462 5.11683L2.69756 7.61683L4.00832 6.38317L1.65538 3.88317L0.34462 5.11683ZM4.00832 7.61683L9.65538 1.61683L8.34462 0.383172L2.69756 6.38317L4.00832 7.61683Z" fill="white"/>
</svg>
