<svg width="18" height="22" viewBox="0 0 18 22" fill="none" xmlns="http://www.w3.org/2000/svg">
<path d="M5.57143 16.5556V14.3333V16.5556ZM9 16.5556V12.1111V16.5556ZM12.4286 16.5556V9.88889V16.5556ZM14.7143 21H3.28571C2.67951 21 2.09812 20.7659 1.66947 20.3491C1.24082 19.9324 1 19.3671 1 18.7778V3.22222C1 2.63285 1.24082 2.06762 1.66947 1.65087C2.09812 1.23413 2.67951 1 3.28571 1H9.66972C9.97279 1.00006 10.2634 1.11717 10.4777 1.32556L16.6651 7.34111C16.8795 7.54944 16.9999 7.83201 17 8.12667V18.7778C17 19.3671 16.7592 19.9324 16.3305 20.3491C15.9019 20.7659 15.3205 21 14.7143 21Z" stroke="#6C7890" stroke-width="2" stroke-linecap="round" stroke-linejoin="round"/>
</svg>
