<svg width="26" height="22" viewBox="0 0 26 22" fill="none" xmlns="http://www.w3.org/2000/svg">
<ellipse cx="8.99987" cy="5.44442" rx="4.57141" ry="4.44442" stroke="#6C7890" stroke-width="2" stroke-linecap="round" stroke-linejoin="round"/>
<path d="M15.8573 9.88885C18.382 9.88885 20.4287 7.89901 20.4287 5.44442C20.4287 2.98984 18.382 1 15.8573 1" stroke="#6C7890" stroke-width="2" stroke-linecap="round" stroke-linejoin="round"/>
<path d="M12.5555 14.333H5.44442C5.03172 14.333 4.82536 14.333 4.65139 14.3482C2.71759 14.5174 1.1844 16.0506 1.01522 17.9844C1 18.1584 1 18.3647 1 18.7774C1 18.9838 1 19.087 1.00761 19.1739C1.0922 20.1408 1.8588 20.9074 2.8257 20.992C2.91268 20.9996 3.01586 20.9996 3.22221 20.9996H14.7777C14.9841 20.9996 15.0872 20.9996 15.1742 20.992C16.1411 20.9074 16.9077 20.1408 16.9923 19.1739C16.9999 19.087 16.9999 18.9838 16.9999 18.7774C16.9999 18.3647 16.9999 18.1584 16.9847 17.9844C16.8155 16.0506 15.2823 14.5174 13.3485 14.3482C13.1746 14.333 12.9682 14.333 12.5555 14.333Z" stroke="#6C7890" stroke-width="2" stroke-linecap="round" stroke-linejoin="round"/>
<path d="M20 13.9976H20.3333C20.9526 13.9976 21.2622 13.9976 21.5221 14.0318C23.317 14.2681 24.7295 15.6805 24.9658 17.4755C25 17.7354 25 18.045 25 18.6642V18.6642C25 18.9738 25 19.1286 24.9829 19.2586C24.8647 20.1561 24.1585 20.8623 23.2611 20.9804C23.1311 20.9976 22.9763 20.9976 22.6667 20.9976H20" stroke="#6C7890" stroke-width="2" stroke-linecap="round" stroke-linejoin="round"/>
</svg>
