<svg width="22" height="22" viewBox="0 0 22 22" fill="none" xmlns="http://www.w3.org/2000/svg">
<path d="M15.4444 21H11C7.26154 21 5.3923 21 4 20.1962C3.08788 19.6695 2.33046 18.9121 1.80385 18C1 16.6077 1 14.7385 1 11V11C1 7.26154 1 5.3923 1.80385 4C2.33046 3.08788 3.08788 2.33046 4 1.80385C5.3923 1 7.26154 1 11 1V1C14.7385 1 16.6077 1 18 1.80385C18.9121 2.33046 19.6695 3.08788 20.1962 4C21 5.3923 21 7.26153 21 11V15.4444M15.4444 21V21C18.5127 21 21 18.5127 21 15.4444V15.4444M15.4444 21V19.4444C15.4444 17.5588 15.4444 16.616 16.0302 16.0302C16.616 15.4444 17.5588 15.4444 19.4444 15.4444H21" stroke="#6C7890" stroke-width="1.8"/>
<path d="M5.4449 4.54531C4.94784 4.54531 4.5449 4.94826 4.5449 5.44531C4.5449 5.94237 4.94784 6.34531 5.4449 6.34531V4.54531ZM14.3338 6.34531C14.8308 6.34531 15.2338 5.94237 15.2338 5.44531C15.2338 4.94826 14.8308 4.54531 14.3338 4.54531V6.34531ZM5.4449 8.98976C4.94784 8.98976 4.5449 9.3927 4.5449 9.88976C4.5449 10.3868 4.94784 10.7898 5.4449 10.7898V8.98976ZM12.1116 10.7898C12.6086 10.7898 13.0116 10.3868 13.0116 9.88976C13.0116 9.3927 12.6086 8.98976 12.1116 8.98976V10.7898ZM5.4449 13.4342C4.94784 13.4342 4.5449 13.8371 4.5449 14.3342C4.5449 14.8313 4.94784 15.2342 5.4449 15.2342V13.4342ZM7.66712 15.2342C8.16418 15.2342 8.56712 14.8313 8.56712 14.3342C8.56712 13.8371 8.16418 13.4342 7.66712 13.4342V15.2342ZM5.4449 6.34531H14.3338V4.54531H5.4449V6.34531ZM5.4449 10.7898H12.1116V8.98976H5.4449V10.7898ZM5.4449 15.2342H7.66712V13.4342H5.4449V15.2342Z" fill="#6C7890"/>
</svg>
