<svg width="64" height="78" viewBox="0 0 64 78" fill="none" xmlns="http://www.w3.org/2000/svg">
<g filter="url(#filter0_d_1604_5742)">
<path d="M38.4327 5.78833C37.3963 4.75912 36.8782 4.24452 36.2745 3.87658C35.7392 3.55036 35.1561 3.31003 34.5465 3.16433C33.8589 3 33.1286 3 31.668 3H10.25C8.32718 3 6.48311 3.75857 5.12348 5.10883C3.76384 6.45909 3 8.29044 3 10.2V67.8C3 69.7096 3.76384 71.5409 5.12348 72.8912C6.48311 74.2414 8.32718 75 10.25 75H53.75C55.6728 75 57.5169 74.2414 58.8765 72.8912C60.2362 71.5409 61 69.7096 61 67.8V32.1959C61 30.7214 61 29.9841 60.8328 29.2907C60.6845 28.676 60.44 28.0885 60.1082 27.5501C59.7341 26.9428 59.2109 26.4233 58.1647 25.3843L38.4327 5.78833Z" fill="white"/>
<path d="M38.4327 5.78833C37.3963 4.75912 36.8782 4.24452 36.2745 3.87658C35.7392 3.55036 35.1561 3.31003 34.5465 3.16433C33.8589 3 33.1286 3 31.668 3H10.25C8.32718 3 6.48311 3.75857 5.12348 5.10883C3.76384 6.45909 3 8.29044 3 10.2V67.8C3 69.7096 3.76384 71.5409 5.12348 72.8912C6.48311 74.2414 8.32718 75 10.25 75H53.75C55.6728 75 57.5169 74.2414 58.8765 72.8912C60.2362 71.5409 61 69.7096 61 67.8V32.1959C61 30.7214 61 29.9841 60.8328 29.2907C60.6845 28.676 60.44 28.0885 60.1082 27.5501C59.7341 26.9428 59.2109 26.4233 58.1647 25.3843L38.4327 5.78833Z" stroke="#E3E5EC"/>
</g>
<path d="M38.2708 46.037H25" stroke="#CDD3DD" stroke-width="2" stroke-linecap="round" stroke-linejoin="round"/>
<path d="M33.1667 53.2593H29.0833H25" stroke="#CDD3DD" stroke-width="2" stroke-linecap="round" stroke-linejoin="round"/>
<path d="M46 57.1111C46 57.8773 45.705 58.6121 45.1799 59.1539C44.6548 59.6956 43.9426 60 43.2 60H20.8C20.0574 60 19.3452 59.6956 18.8201 59.1539C18.295 58.6121 18 57.8773 18 57.1111V36.8889C18 36.1227 18.295 35.3879 18.8201 34.8461C19.3452 34.3044 20.0574 34 20.8 34H27.8L30.6 38.3333H43.2C43.9426 38.3333 44.6548 38.6377 45.1799 39.1795C45.705 39.7212 46 40.456 46 41.2222V57.1111Z" stroke="#CDD3DD" stroke-width="2" stroke-linecap="round" stroke-linejoin="round"/>
<defs>
<filter id="filter0_d_1604_5742" x="0.5" y="0.5" width="63" height="77" filterUnits="userSpaceOnUse" color-interpolation-filters="sRGB">
<feFlood flood-opacity="0" result="BackgroundImageFix"/>
<feColorMatrix in="SourceAlpha" type="matrix" values="0 0 0 0 0 0 0 0 0 0 0 0 0 0 0 0 0 0 127 0" result="hardAlpha"/>
<feOffset/>
<feGaussianBlur stdDeviation="1"/>
<feColorMatrix type="matrix" values="0 0 0 0 0.0784314 0 0 0 0 0.160784 0 0 0 0 0.196078 0 0 0 0.08 0"/>
<feBlend mode="normal" in2="BackgroundImageFix" result="effect1_dropShadow_1604_5742"/>
<feBlend mode="normal" in="SourceGraphic" in2="effect1_dropShadow_1604_5742" result="shape"/>
</filter>
</defs>
</svg>
