<svg width="20" height="15" viewBox="0 0 20 15" fill="none" xmlns="http://www.w3.org/2000/svg">
<path d="M1.50548 8.36716C1.16613 7.83227 1.16613 7.16773 1.50548 6.63285C2.62838 4.86289 5.58483 1 10 1C14.4152 1 17.3716 4.86289 18.4945 6.63284C18.8339 7.16773 18.8339 7.83227 18.4945 8.36715C17.3716 10.1371 14.4152 14 10 14C5.58483 14 2.62838 10.1371 1.50548 8.36716Z" stroke="#6C7890" stroke-width="2" stroke-linecap="round" stroke-linejoin="round"/>
<path d="M9.99996 9.9375C11.3556 9.9375 12.4545 8.84619 12.4545 7.5C12.4545 6.15381 11.3556 5.0625 9.99996 5.0625C8.64435 5.0625 7.54541 6.15381 7.54541 7.5C7.54541 8.84619 8.64435 9.9375 9.99996 9.9375Z" stroke="#6C7890" stroke-width="2" stroke-linecap="round" stroke-linejoin="round"/>
</svg>
