<svg width="31" height="31" viewBox="0 0 31 31" fill="none" xmlns="http://www.w3.org/2000/svg">
<path d="M1.72461 25.6555L10.5327 18.1057C11.2939 17.4532 12.4207 17.4652 13.1679 18.1337L25.6212 29.2762" stroke="#A6B0C2" stroke-width="2"/>
<path d="M18.3789 22.7584L21.4866 20.1686C22.2089 19.5668 23.2528 19.5492 23.9949 20.1264L29.241 24.2067" stroke="#A6B0C2" stroke-width="2"/>
<path d="M15.4828 2.03418C16.035 2.03418 16.4828 1.58646 16.4828 1.03418C16.4828 0.481895 16.035 0.0341797 15.4828 0.0341797V2.03418ZM30.9655 15.5169C30.9655 14.9647 30.5178 14.5169 29.9655 14.5169C29.4132 14.5169 28.9655 14.9647 28.9655 15.5169H30.9655ZM23.9655 28.9997H7V30.9997H23.9655V28.9997ZM2 23.9997V7.03418H0V23.9997H2ZM7 2.03418H15.4828V0.0341797H7V2.03418ZM28.9655 15.5169V23.9997H30.9655V15.5169H28.9655ZM7 28.9997C4.23858 28.9997 2 26.7611 2 23.9997H0C0 27.8657 3.13401 30.9997 7 30.9997V28.9997ZM23.9655 30.9997C27.8315 30.9997 30.9655 27.8657 30.9655 23.9997H28.9655C28.9655 26.7611 26.7269 28.9997 23.9655 28.9997V30.9997ZM2 7.03418C2 4.27276 4.23858 2.03418 7 2.03418V0.0341797C3.13401 0.0341797 0 3.16819 0 7.03418H2Z" fill="#A6B0C2"/>
<rect x="24.2764" width="2.06897" height="11.3793" rx="1.03448" fill="#A6B0C2"/>
<rect x="31" y="4.65527" width="2.06897" height="11.3793" rx="1.03448" transform="rotate(90 31 4.65527)" fill="#A6B0C2"/>
</svg>
