<svg width="17" height="16" viewBox="0 0 17 16" fill="none" xmlns="http://www.w3.org/2000/svg">
<path d="M8.5 2.75V1M8.5 2.75C8.00272 2.75 7.52581 2.93437 7.17418 3.26256C6.82254 3.59075 6.625 4.03587 6.625 4.5C6.625 4.96413 6.82254 5.40925 7.17418 5.73744C7.52581 6.06563 8.00272 6.25 8.5 6.25M8.5 2.75C8.99728 2.75 9.47419 2.93437 9.82582 3.26256C10.1775 3.59075 10.375 4.03587 10.375 4.5C10.375 4.96413 10.1775 5.40925 9.82582 5.73744C9.47419 6.06563 8.99728 6.25 8.5 6.25M8.5 6.25V15M2.875 13.25C3.37228 13.25 3.84919 13.0656 4.20083 12.7374C4.55246 12.4092 4.75 11.9641 4.75 11.5C4.75 11.0359 4.55246 10.5908 4.20083 10.2626C3.84919 9.93437 3.37228 9.75 2.875 9.75M2.875 13.25C2.37772 13.25 1.90081 13.0656 1.54917 12.7374C1.19754 12.4092 1 11.9641 1 11.5C1 11.0359 1.19754 10.5908 1.54917 10.2626C1.90081 9.93437 2.37772 9.75 2.875 9.75M2.875 13.25V15M2.875 9.75V1M14.125 13.25C14.6223 13.25 15.0992 13.0656 15.4508 12.7374C15.8025 12.4092 16 11.9641 16 11.5C16 11.0359 15.8025 10.5908 15.4508 10.2626C15.0992 9.93437 14.6223 9.75 14.125 9.75M14.125 13.25C13.6277 13.25 13.1508 13.0656 12.7992 12.7374C12.4475 12.4092 12.25 11.9641 12.25 11.5C12.25 11.0359 12.4475 10.5908 12.7992 10.2626C13.1508 9.93437 13.6277 9.75 14.125 9.75M14.125 13.25V15M14.125 9.75V1" stroke="#6C7890" stroke-width="1.8" stroke-linecap="round" stroke-linejoin="round"/>
</svg>
