<svg width="22" height="22" viewBox="0 0 22 22" fill="none" xmlns="http://www.w3.org/2000/svg">
<path d="M15.4444 21H11C7.26154 21 5.3923 21 4 20.1962C3.08788 19.6695 2.33046 18.9121 1.80385 18C1 16.6077 1 14.7385 1 11V11C1 7.26154 1 5.3923 1.80385 4C2.33046 3.08788 3.08788 2.33046 4 1.80385C5.3923 1 7.26154 1 11 1V1C14.7385 1 16.6077 1 18 1.80385C18.9121 2.33046 19.6695 3.08788 20.1962 4C21 5.3923 21 7.26153 21 11V15.4444M15.4444 21V21C18.5127 21 21 18.5127 21 15.4444V15.4444M15.4444 21V19.4444C15.4444 17.5588 15.4444 16.616 16.0302 16.0302C16.616 15.4444 17.5588 15.4444 19.4444 15.4444H21" stroke="#6C7890" stroke-width="2"/>
<path d="M5.44666 4.44336C4.89437 4.44336 4.44666 4.89107 4.44666 5.44336C4.44666 5.99564 4.89437 6.44336 5.44666 6.44336V4.44336ZM14.3355 6.44336C14.8878 6.44336 15.3355 5.99564 15.3355 5.44336C15.3355 4.89107 14.8878 4.44336 14.3355 4.44336V6.44336ZM5.44666 8.8878C4.89437 8.8878 4.44666 9.33552 4.44666 9.8878C4.44666 10.4401 4.89437 10.8878 5.44666 10.8878V8.8878ZM12.1133 10.8878C12.6656 10.8878 13.1133 10.4401 13.1133 9.8878C13.1133 9.33552 12.6656 8.8878 12.1133 8.8878V10.8878ZM5.44666 13.3322C4.89437 13.3322 4.44666 13.78 4.44666 14.3322C4.44666 14.8845 4.89437 15.3322 5.44666 15.3322V13.3322ZM7.66888 15.3322C8.22116 15.3322 8.66888 14.8845 8.66888 14.3322C8.66888 13.78 8.22116 13.3322 7.66888 13.3322V15.3322ZM5.44666 6.44336H14.3355V4.44336H5.44666V6.44336ZM5.44666 10.8878H12.1133V8.8878H5.44666V10.8878ZM5.44666 15.3322H7.66888V13.3322H5.44666V15.3322Z" fill="#6C7890"/>
</svg>
