<svg width="22" height="22" viewBox="0 0 22 22" fill="none" xmlns="http://www.w3.org/2000/svg">
<path fill-rule="evenodd" clip-rule="evenodd" d="M10.9572 2.67461e-06H11.0421C11.3418 -2.71565e-05 11.5459 -4.73717e-05 11.7262 0.0141447C13.9735 0.191085 15.7585 1.97608 15.9355 4.22345C15.936 4.23061 15.9366 4.23781 15.9371 4.24504L18.1854 4.24504C18.6686 4.24503 19.0855 4.24501 19.4288 4.27306C19.7912 4.30267 20.1516 4.36804 20.4985 4.54476C21.0159 4.80841 21.4366 5.22909 21.7002 5.74652C21.8769 6.09335 21.9423 6.45379 21.9719 6.81618C22 7.15952 22 7.57636 21.9999 8.05956V8.63248C22 9.11567 22 9.53252 21.9719 9.87586C21.9423 10.2382 21.8769 10.5987 21.7002 10.9455C21.5265 11.2864 21.2847 11.5853 20.9919 11.825V15.2562C20.9919 16.2495 20.9919 17.0509 20.9389 17.6997C20.8843 18.3678 20.769 18.9546 20.4924 19.4975C20.053 20.3599 19.3518 21.0611 18.4895 21.5005C17.9465 21.7771 17.3597 21.8924 16.6916 21.947C16.0428 22 15.2415 22 14.248 22H7.75251C6.75907 22 5.95778 22 5.30891 21.947C4.64083 21.8924 4.05401 21.7771 3.51109 21.5005C2.64871 21.0611 1.94758 20.3599 1.50817 19.4975C1.23154 18.9546 1.11622 18.3678 1.06163 17.6997C1.00862 17.0509 1.00863 16.2496 1.00864 15.2561L1.00864 11.8255C0.715596 11.5857 0.473533 11.2866 0.299724 10.9455C0.123002 10.5987 0.0576316 10.2382 0.0280234 9.87586C-2.8373e-05 9.53252 -1.48926e-05 9.11568 7.33916e-07 8.63249V8.05958C-1.48926e-05 7.57639 -2.83713e-05 7.15952 0.0280234 6.81618C0.0576316 6.45379 0.123002 6.09335 0.299724 5.74652C0.563367 5.22909 0.984049 4.80841 1.50148 4.54476C1.84831 4.36804 2.20875 4.30267 2.57114 4.27306C2.91448 4.24501 3.33132 4.24503 3.81451 4.24504L6.06218 4.24504C6.0627 4.23781 6.06324 4.23061 6.0638 4.22345C6.24074 1.97608 8.02574 0.191085 10.2731 0.0141447C10.4534 -4.73717e-05 10.6574 -2.71565e-05 10.9572 2.67461e-06ZM6.92887 6.07831C6.94129 6.07881 6.95376 6.07906 6.9663 6.07906C6.97883 6.07906 6.99131 6.07881 7.00372 6.07831H14.9955C15.008 6.07881 15.0204 6.07906 15.033 6.07906C15.0455 6.07906 15.058 6.07881 15.0704 6.07831H18.1501C18.6786 6.07831 19.0198 6.07903 19.2795 6.10025C19.5285 6.12059 19.6209 6.15513 19.6662 6.17822C19.8387 6.2661 19.9789 6.40633 20.0668 6.5788C20.0899 6.62413 20.1244 6.71645 20.1447 6.96547C20.166 7.22518 20.1667 7.56642 20.1667 8.09491V8.59713C20.1667 9.12562 20.166 9.46685 20.1447 9.72657C20.1244 9.97559 20.0899 10.0679 20.0668 10.1132C19.9789 10.2857 19.8387 10.4259 19.6662 10.5138C19.6209 10.5369 19.5285 10.5714 19.2795 10.5918C19.0198 10.613 18.6786 10.6137 18.1501 10.6137H16.4994V10.083C16.4994 9.57675 16.089 9.16636 15.5828 9.16636C15.0766 9.16636 14.6662 9.57675 14.6662 10.083V10.6137H7.33308V10.083C7.33308 9.57675 6.92269 9.16636 6.41645 9.16636C5.9102 9.16636 5.49981 9.57675 5.49981 10.083V10.6137H3.84987C3.32138 10.6137 2.98014 10.613 2.72042 10.5918C2.47141 10.5714 2.37909 10.5369 2.33376 10.5138C2.16129 10.4259 2.02106 10.2857 1.93318 10.1132C1.91009 10.0679 1.87555 9.97559 1.8552 9.72657C1.83399 9.46685 1.83327 9.12562 1.83327 8.59713V8.09491C1.83327 7.56642 1.83399 7.22518 1.8552 6.96547C1.87555 6.71645 1.91009 6.62413 1.93318 6.5788C2.02106 6.40633 2.16129 6.2661 2.33376 6.17822C2.37909 6.15513 2.47141 6.12059 2.72042 6.10025C2.98014 6.07903 3.32138 6.07831 3.84987 6.07831H6.92887ZM5.49981 12.447L3.81454 12.447C3.45197 12.447 3.12674 12.447 2.84191 12.4352V15.2169C2.84191 16.2588 2.84262 16.985 2.88881 17.5504C2.93414 18.1052 3.01863 18.4239 3.14163 18.6653C3.40527 19.1827 3.82595 19.6034 4.34338 19.867C4.58478 19.99 4.90348 20.0745 5.4582 20.1198C6.02362 20.166 6.74988 20.1667 7.79173 20.1667H14.2088C15.2507 20.1667 15.9769 20.166 16.5423 20.1198C17.0971 20.0745 17.4158 19.99 17.6572 19.867C18.1746 19.6034 18.5953 19.1827 18.8589 18.6653C18.9819 18.4239 19.0664 18.1052 19.1117 17.5504C19.1579 16.985 19.1586 16.2588 19.1586 15.2169V12.4351C18.8737 12.447 18.5483 12.447 18.1854 12.447L16.4994 12.447V12.8329C16.4994 13.3391 16.089 13.7495 15.5828 13.7495C15.0766 13.7495 14.6662 13.3391 14.6662 12.8329V12.447H7.33308V12.8329C7.33308 13.3391 6.92269 13.7495 6.41645 13.7495C5.9102 13.7495 5.49981 13.3391 5.49981 12.8329V12.447ZM14.0955 4.24504H7.90377C8.06302 2.95464 9.10961 1.94469 10.417 1.84176C10.5157 1.83399 10.6416 1.83328 10.9996 1.83328C11.3577 1.83328 11.4836 1.83399 11.5823 1.84176C12.8897 1.94469 13.9363 2.95464 14.0955 4.24504Z" fill="#6C7890"/>
</svg>
