<svg width="16" height="42" viewBox="0 0 16 42" fill="none" xmlns="http://www.w3.org/2000/svg">
<path d="M14.1762 33.5879C14.1762 37.2262 11.2266 40.1757 7.58812 40.1757C3.9496 40.1757 1 37.2262 1 33.5879C1 29.9495 3.9496 27 7.58812 27C11.2266 27 14.1762 29.9495 14.1762 33.5879Z" stroke="#152850" stroke-width="2"/>
<path d="M12.5295 38.5298L15.0001 41.0002" stroke="#152850" stroke-width="2" stroke-linecap="round" stroke-linejoin="round"/>
<path d="M14.1762 7.58785C14.1762 11.2262 11.2266 14.1757 7.58812 14.1757C3.9496 14.1757 1 11.2262 1 7.58785C1 3.94948 3.9496 1 7.58812 1C11.2266 1 14.1762 3.94948 14.1762 7.58785Z" stroke="#A6B0C2" stroke-width="2"/>
<path d="M12.5295 12.5298L15.0001 15.0002" stroke="#A6B0C2" stroke-width="2" stroke-linecap="round" stroke-linejoin="round"/>
</svg>
