<svg width="24" height="24" viewBox="0 0 24 24" fill="none" xmlns="http://www.w3.org/2000/svg">
<path d="M22.1667 8.33301C22.1667 7.78072 21.719 7.33301 21.1667 7.33301C20.6144 7.33301 20.1667 7.78072 20.1667 8.33301H22.1667ZM15.6667 3.83301C16.219 3.83301 16.6667 3.38529 16.6667 2.83301C16.6667 2.28072 16.219 1.83301 15.6667 1.83301V3.83301ZM3.9435 22.1628L3.43408 23.0233L3.9435 22.1628ZM1.83688 20.0562L0.976362 20.5656L1.83688 20.0562ZM18.2232 22.1628L17.7138 21.3023L18.2232 22.1628ZM20.3298 20.0562L19.4693 19.5468L20.3298 20.0562ZM22.1667 12.9163V8.33301H20.1667V12.9163H22.1667ZM11.0833 3.83301H15.6667V1.83301H11.0833V3.83301ZM11.0833 21.9997C9.15581 21.9997 7.77843 21.9987 6.7041 21.8993C5.64398 21.8013 4.97965 21.6141 4.45291 21.3023L3.43408 23.0233C4.32102 23.5484 5.31789 23.7796 6.51991 23.8908C7.70772 24.0007 9.19342 23.9997 11.0833 23.9997V21.9997ZM0 12.9163C0 14.8063 -0.000997901 16.292 0.10886 17.4798C0.220032 18.6818 0.451304 19.6787 0.976362 20.5656L2.6974 19.5468C2.38558 19.02 2.19841 18.3557 2.10036 17.2956C2.001 16.2212 2 14.8439 2 12.9163H0ZM4.45291 21.3023C3.72946 20.874 3.12568 20.2702 2.6974 19.5468L0.976362 20.5656C1.57595 21.5784 2.42124 22.4237 3.43408 23.0233L4.45291 21.3023ZM11.0833 23.9997C12.9733 23.9997 14.4589 24.0007 15.6468 23.8908C16.8488 23.7796 17.8456 23.5484 18.7326 23.0233L17.7138 21.3023C17.187 21.6141 16.5227 21.8013 15.4626 21.8993C14.3882 21.9987 13.0109 21.9997 11.0833 21.9997V23.9997ZM20.1667 12.9163C20.1667 14.8439 20.1657 16.2212 20.0663 17.2956C19.9683 18.3557 19.7811 19.02 19.4693 19.5468L21.1903 20.5656C21.7154 19.6787 21.9466 18.6818 22.0578 17.4798C22.1677 16.292 22.1667 14.8063 22.1667 12.9163H20.1667ZM18.7326 23.0233C19.7454 22.4237 20.5907 21.5784 21.1903 20.5656L19.4693 19.5468C19.041 20.2702 18.4372 20.874 17.7138 21.3023L18.7326 23.0233ZM2 12.9163C2 10.9888 2.001 9.61144 2.10036 8.53711C2.19841 7.47699 2.38558 6.81266 2.6974 6.28592L0.976362 5.26709C0.451304 6.15403 0.220032 7.1509 0.10886 8.35292C-0.000997901 9.54073 0 11.0264 0 12.9163H2ZM11.0833 1.83301C9.19342 1.83301 7.70772 1.83201 6.51991 1.94187C5.31789 2.05304 4.32102 2.28431 3.43408 2.80937L4.45291 4.53041C4.97965 4.21859 5.64398 4.03142 6.7041 3.93337C7.77843 3.83401 9.15581 3.83301 11.0833 3.83301V1.83301ZM2.6974 6.28592C3.12568 5.56247 3.72946 4.95868 4.45291 4.53041L3.43408 2.80937C2.42124 3.40896 1.57595 4.25425 0.976362 5.26709L2.6974 6.28592Z" fill="#6C7890"/>
<path d="M5.6221 15.1881C5.35764 15.673 5.5363 16.2804 6.02115 16.5449C6.506 16.8094 7.11343 16.6307 7.3779 16.1458L5.6221 15.1881ZM16.5598 10.6167C16.8082 10.1234 16.6097 9.52219 16.1164 9.27382C15.6231 9.02545 15.0219 9.224 14.7735 9.71728L16.5598 10.6167ZM12.5323 13.4602L12.4138 14.4531L12.5323 13.4602ZM14.9387 11.6128L15.8319 12.0625L14.9387 11.6128ZM14.1592 12.9123L14.8542 13.6313L14.1592 12.9123ZM8.15417 12.8582L7.47798 12.1214L8.15417 12.8582ZM9.75762 12.3474L9.63209 13.3395L9.75762 12.3474ZM7.3779 16.1458L8.23396 14.5764L6.47817 13.6187L5.6221 15.1881L7.3779 16.1458ZM15.8319 12.0625L16.5598 10.6167L14.7735 9.71728L14.0455 11.1631L15.8319 12.0625ZM10.6863 13.7953C11.3249 14.1075 11.8663 14.3878 12.4138 14.4531L12.6508 12.4672C12.5248 12.4522 12.3528 12.3838 11.5647 11.9985L10.6863 13.7953ZM14.0455 11.1631C13.651 11.9466 13.5555 12.1051 13.4642 12.1933L14.8542 13.6313C15.2507 13.2481 15.5122 12.6974 15.8319 12.0625L14.0455 11.1631ZM12.4138 14.4531C13.3094 14.56 14.2057 14.2582 14.8542 13.6313L13.4642 12.1933C13.2481 12.4022 12.9493 12.5028 12.6508 12.4672L12.4138 14.4531ZM8.23396 14.5764C8.64157 13.8291 8.73875 13.679 8.83037 13.5949L7.47798 12.1214C7.08062 12.4862 6.80872 13.0127 6.47817 13.6187L8.23396 14.5764ZM11.5647 11.9985C10.9446 11.6953 10.4182 11.423 9.88315 11.3553L9.63209 13.3395C9.75547 13.3551 9.92157 13.4214 10.6863 13.7953L11.5647 11.9985ZM8.83037 13.5949C9.04705 13.396 9.3403 13.3026 9.63209 13.3395L9.88315 11.3553C9.00777 11.2446 8.12802 11.5248 7.47798 12.1214L8.83037 13.5949Z" fill="#6C7890"/>
<circle cx="21.1667" cy="2.83333" r="1.83333" stroke="#6C7890" stroke-width="2"/>
</svg>
