<svg width="22" height="22" viewBox="0 0 22 22" fill="none" xmlns="http://www.w3.org/2000/svg">
<path d="M15.4444 21H11C7.26154 21 5.3923 21 4 20.1962C3.08788 19.6695 2.33046 18.9121 1.80385 18C1 16.6077 1 14.7385 1 11C1 7.26154 1 5.3923 1.80385 4C2.33046 3.08788 3.08788 2.33046 4 1.80385C5.3923 1 7.26154 1 11 1C14.7385 1 16.6077 1 18 1.80385C18.9121 2.33046 19.6695 3.08788 20.1962 4C21 5.3923 21 7.26154 21 11V15.4444C21 18.5127 18.5127 21 15.4444 21Z" stroke="#6C7890" stroke-width="2"/>
<path d="M15.5452 11.9089C15.5452 10.4027 16.7662 9.18164 18.2724 9.18164H20.9997V14.6362H18.2724C16.7662 14.6362 15.5452 13.4151 15.5452 11.9089V11.9089Z" stroke="#6C7890" stroke-width="2"/>
<path d="M5.54517 5.5459H12.8179" stroke="#6C7890" stroke-width="2" stroke-linecap="round" stroke-linejoin="round"/>
</svg>
