<svg width="20" height="18" viewBox="0 0 20 18" fill="none" xmlns="http://www.w3.org/2000/svg">
<path d="M2.75914 1L16.8373 1V6.86528C16.8373 8.54544 16.8373 9.38551 16.5103 10.0272C16.2227 10.5917 15.7638 11.0507 15.1993 11.3383C14.5575 11.6653 13.7175 11.6653 12.0373 11.6653L7.55914 11.6653C5.87898 11.6653 5.0389 11.6653 4.39717 11.3383C3.83268 11.0507 3.37374 10.5917 3.08612 10.0272C2.75914 9.38551 2.75914 8.54543 2.75914 6.86528L2.75914 1Z" stroke="#6C7890" stroke-width="1.8" stroke-linecap="round" stroke-linejoin="round"/>
<path d="M6.27901 6.33203L6.27901 8.10958" stroke="#6C7890" stroke-width="1.8" stroke-linecap="round" stroke-linejoin="round"/>
<path d="M9.79886 4.55469L9.79886 8.10978" stroke="#6C7890" stroke-width="1.8" stroke-linecap="round" stroke-linejoin="round"/>
<path d="M13.3187 5.44141L13.3187 8.10773" stroke="#6C7890" stroke-width="1.8" stroke-linecap="round" stroke-linejoin="round"/>
<path d="M1 1L18.5977 1" stroke="#6C7890" stroke-width="1.8" stroke-linecap="round" stroke-linejoin="round"/>
<path d="M9.79886 11.668V14.3343M9.79886 14.3343L5.39943 17.0006M9.79886 14.3343L14.1983 17.0006M9.79886 14.3343V17.0006" stroke="#6C7890" stroke-width="1.8" stroke-linecap="round" stroke-linejoin="round"/>
</svg>
