<svg width="22" height="22" viewBox="0 0 22 22" fill="none" xmlns="http://www.w3.org/2000/svg">
<path d="M15.4444 21H11C7.26154 21 5.3923 21 4 20.1962C3.08788 19.6695 2.33046 18.9121 1.80385 18C1 16.6077 1 14.7385 1 11C1 7.26154 1 5.3923 1.80385 4C2.33046 3.08788 3.08788 2.33046 4 1.80385C5.3923 1 7.26154 1 11 1C14.7385 1 16.6077 1 18 1.80385C18.9121 2.33046 19.6695 3.08788 20.1962 4C21 5.3923 21 7.26154 21 11V15.4444C21 18.5127 18.5127 21 15.4444 21Z" stroke="#6C7890" stroke-width="2"/>
<path d="M5 16C5 16.5523 5.44772 17 6 17C6.55228 17 7 16.5523 7 16H5ZM7 12.3636C7 11.8114 6.55228 11.3636 6 11.3636C5.44772 11.3636 5 11.8114 5 12.3636H7ZM10 16C10 16.5523 10.4477 17 11 17C11.5523 17 12 16.5523 12 16H10ZM12 9.63636C12 9.08408 11.5523 8.63636 11 8.63636C10.4477 8.63636 10 9.08408 10 9.63636H12ZM15 16C15 16.5523 15.4477 17 16 17C16.5523 17 17 16.5523 17 16H15ZM17 6C17 5.44772 16.5523 5 16 5C15.4477 5 15 5.44772 15 6H17ZM7 16V12.3636H5V16H7ZM12 16V9.63636H10V16H12ZM17 16V6H15V16H17Z" fill="#6C7890"/>
</svg>
