<svg width="19" height="207" viewBox="0 0 19 207" fill="none" xmlns="http://www.w3.org/2000/svg">
<path d="M12.5556 206H9C5.22876 206 3.34315 206 2.17157 204.828C1 203.657 1 201.771 1 198C1 194.229 1 192.343 2.17157 191.172C3.34315 190 5.22876 190 9 190C12.7712 190 14.6569 190 15.8284 191.172C17 192.343 17 194.229 17 198V201.556C17 201.968 17 202.175 16.9848 202.349C16.8156 204.282 15.2824 205.816 13.3486 205.985C13.1746 206 12.9683 206 12.5556 206Z" stroke="#6C7890" stroke-width="2"/>
<path d="M12.6359 199.87C12.6359 198.665 13.6128 197.688 14.8178 197.688H16.9996V202.052H14.8178C13.6128 202.052 12.6359 201.075 12.6359 199.87V199.87Z" stroke="#6C7890" stroke-width="2"/>
<path d="M4.63594 193.637H10.4541" stroke="#6C7890" stroke-width="2" stroke-linecap="round" stroke-linejoin="round"/>
<path d="M5.5 134.5H3.75C3.28587 134.5 2.84075 134.316 2.51256 133.987C2.18437 133.659 2 133.214 2 132.75V125.75C2 125.286 2.18437 124.841 2.51256 124.513C2.84075 124.184 3.28587 124 3.75 124H10.75C11.2141 124 11.6592 124.184 11.9874 124.513C12.3156 124.841 12.5 125.286 12.5 125.75V127.5M7.25 138H14.25C14.7141 138 15.1592 137.816 15.4874 137.487C15.8156 137.159 16 136.714 16 136.25V129.25C16 128.786 15.8156 128.341 15.4874 128.013C15.1592 127.684 14.7141 127.5 14.25 127.5H7.25C6.78587 127.5 6.34075 127.684 6.01256 128.013C5.68437 128.341 5.5 128.786 5.5 129.25V136.25C5.5 136.714 5.68437 137.159 6.01256 137.487C6.34075 137.816 6.78587 138 7.25 138Z" stroke="#6C7890" stroke-width="2" stroke-linecap="round" stroke-linejoin="round"/>
<path d="M1 167.429L4.94722 167.429" stroke="#6C7890" stroke-width="2" stroke-linecap="round" stroke-linejoin="round"/>
<path d="M2.57781 169.714L7.31447 169.714" stroke="#6C7890" stroke-width="2" stroke-linecap="round" stroke-linejoin="round"/>
<path d="M1.78995 165.143C1.78995 161.356 4.97096 158.286 8.89494 158.286C12.8189 158.286 15.9999 161.356 15.9999 165.143C15.9999 168.93 12.8189 172 8.89494 172L4.94772 172" stroke="#6C7890" stroke-width="2" stroke-linecap="round" stroke-linejoin="round"/>
<path d="M10.4742 156L7.31645 156" stroke="#6C7890" stroke-width="2" stroke-linecap="round" stroke-linejoin="round"/>
<path d="M9.25 162.544L9.25 166.18" stroke="#6C7890" stroke-width="2" stroke-linecap="round" stroke-linejoin="round"/>
<path d="M11.5138 62.7328L14.264 65.4774L11.5138 62.7328ZM12.6804 61.5684C13.0451 61.2045 13.5398 61 14.0556 61C14.5713 61 15.066 61.2045 15.4307 61.5684C15.7954 61.9324 16.0003 62.4261 16.0003 62.9408C16.0003 63.4555 15.7954 63.9492 15.4307 64.3131L4.72222 75H2V72.2274L12.6804 61.5684V61.5684Z" stroke="#6C7890" stroke-width="2" stroke-linecap="round" stroke-linejoin="round"/>
<path d="M2 93.5556H16M15.125 93.5556L14.3664 104.348C14.3349 104.797 14.1374 105.217 13.8135 105.523C13.4896 105.83 13.0634 106 12.6208 106H5.37925C4.93662 106 4.51043 105.83 4.18652 105.523C3.86262 105.217 3.66505 104.797 3.63363 104.348L2.875 93.5556H15.125ZM7.25 97.1111V102.444V97.1111ZM10.75 97.1111V102.444V97.1111ZM11.625 93.5556V90.8889C11.625 90.6531 11.5328 90.427 11.3687 90.2603C11.2046 90.0937 10.9821 90 10.75 90H7.25C7.01794 90 6.79538 90.0937 6.63128 90.2603C6.46719 90.427 6.375 90.6531 6.375 90.8889V93.5556H11.625Z" stroke="#6C7890" stroke-width="2" stroke-linecap="round" stroke-linejoin="round"/>
<path d="M12.6667 32L7.33333 34.625M7.33333 46L2.49156 43.6165C2.34393 43.5439 2.21975 43.4322 2.13294 43.2941C2.04612 43.1559 2.00009 42.9967 2 42.8342V33.4158C2.00008 33.2667 2.03886 33.1201 2.11266 32.9899C2.18646 32.8597 2.29283 32.7502 2.42168 32.6718C2.55053 32.5935 2.69759 32.5488 2.84889 32.5421C3.0002 32.5354 3.15074 32.5669 3.28622 32.6335L7.33333 34.625V46ZM7.33333 46L12.6667 43.375L7.33333 46ZM7.33333 46V34.625V46ZM12.6667 43.375L16.7138 45.3665C16.8493 45.4331 16.9998 45.4646 17.1511 45.4579C17.3024 45.4512 17.4495 45.4065 17.5783 45.3282C17.7072 45.2498 17.8135 45.1403 17.8873 45.0101C17.9611 44.8799 17.9999 44.7333 18 44.5842V35.1658C17.9999 35.0033 17.9539 34.8441 17.8671 34.7059C17.7802 34.5678 17.6561 34.4561 17.5084 34.3835L12.6667 32V43.375ZM12.6667 43.375V32V43.375Z" stroke="#6C7890" stroke-width="2" stroke-linecap="round" stroke-linejoin="round"/>
<path d="M6.71429 2.77778H4.85714C4.3646 2.77778 3.89223 2.96508 3.54394 3.29848C3.19566 3.63187 3 4.08406 3 4.55556V15.2222C3 15.6937 3.19566 16.1459 3.54394 16.4793C3.89223 16.8127 4.3646 17 4.85714 17H14.1429C14.6354 17 15.1078 16.8127 15.4561 16.4793C15.8043 16.1459 16 15.6937 16 15.2222V4.55556C16 4.08406 15.8043 3.63187 15.4561 3.29848C15.1078 2.96508 14.6354 2.77778 14.1429 2.77778H12.2857M6.71429 2.77778C6.71429 3.24927 6.90995 3.70146 7.25823 4.03486C7.60651 4.36825 8.07888 4.55556 8.57143 4.55556H10.4286C10.9211 4.55556 11.3935 4.36825 11.7418 4.03486C12.0901 3.70146 12.2857 3.24927 12.2857 2.77778M6.71429 2.77778C6.71429 2.30628 6.90995 1.8541 7.25823 1.5207C7.60651 1.1873 8.07888 1 8.57143 1H10.4286C10.9211 1 11.3935 1.1873 11.7418 1.5207C12.0901 1.8541 12.2857 2.30628 12.2857 2.77778M9.5 9H12.2857M9.5 12.5556H12.2857M6.71429 9H6.72357M6.71429 12.5556H6.72357" stroke="#6C7890" stroke-width="2" stroke-linecap="round" stroke-linejoin="round"/>
</svg>
