<svg id="Layer_1" data-name="Layer 1" xmlns="http://www.w3.org/2000/svg" viewBox="0 0 1000 146.03">
  <title>black_1000px</title>
  <g>
    <g>
      <path d="M264.86,44.35h24.27V65.47q12.24-24.07,42-24.08,21.1,0,32,11.65T374,87.37V143H348.93V91.12q0-30-27.24-30-14.79,0-23.28,9t-8.49,24.57V143H264.86Z"/>
      <path d="M421.05,139.42A45.89,45.89,0,0,1,403.39,121q-6.31-11.84-6.31-27.23t6.51-27.24a46.47,46.47,0,0,1,18.25-18.45,53.63,53.63,0,0,1,26.74-6.61q26.84,0,39.27,18.35V0h25.06V143.07H488.84V124.52a40.51,40.51,0,0,1-16.68,15.89Q461.41,146,447,146A50.59,50.59,0,0,1,421.05,139.42Zm58.22-20.52q9-8.39,9-22.2V91.37q0-14.2-9.08-22.79T455.1,60q-15,0-23.39,8.88t-8.39,24.67q0,15.58,8.69,24.67t23.68,9.07Q470.29,127.28,479.27,118.9Z"/>
      <path d="M564.73,139.72A48,48,0,0,1,544,121.56q-7.41-11.84-7.4-27.82T544,65.91a48.09,48.09,0,0,1,20.72-18.15q13.32-6.32,30.69-6.32t30.68,6.32a48.09,48.09,0,0,1,20.72,18.15q7.39,11.85,7.4,27.83t-7.4,27.82a48,48,0,0,1-20.72,18.16Q612.78,146,595.42,146T564.73,139.72Zm54.86-21q8.77-8.78,8.78-25t-8.78-25Q610.8,60,595.42,60t-24.08,8.78q-8.69,8.79-8.68,25t8.78,25q8.77,8.79,24,8.78Q610.81,127.48,619.59,118.7Z"/>
      <path d="M713.83,49.53q9.67-7.7,23.09-7.69a45.24,45.24,0,0,1,7.11.39V65.72a52.63,52.63,0,0,0-7.9-.6q-15.79,0-24.27,8.49a29.35,29.35,0,0,0-7.5,13.12,65.84,65.84,0,0,0-2.17,17.66v38.68H677.13V44.4h23.09V70.45Q704.17,57.24,713.83,49.53Z"/>
      <path d="M781,139.32q-14.41-6.7-21.32-19.73l17.17-9.67q11.05,18.36,40.85,18.35,11.85,0,17.86-3.35t6-9.48c0-3.41-1.15-5.92-3.45-7.49s-6.35-2.77-12.14-3.56L796.81,101q-32.35-4.14-32.36-28.62,0-14.4,12.73-22.69t35.42-8.29q18.95,0,32.46,5.82T864.5,63.54L848.32,73.81a35.12,35.12,0,0,0-14.8-11.25q-9.07-3.75-22.7-3.75-23.09,0-23.08,12.23a8.36,8.36,0,0,0,3.65,7.3q3.65,2.58,11.34,3.56l30.59,3.55q16.57,2.17,24.08,9.08t7.5,19.14q0,15-12.44,23.68T816.35,146Q795.43,146,781,139.32Z"/>
      <path d="M1000,100.05H911q.78,12.63,10.06,19.93t24.67,7.3q11.64,0,20-4.34a30,30,0,0,0,12.93-12.82l19.73,9.07a51.23,51.23,0,0,1-21.21,19.94q-13.53,6.9-32.27,6.9-27.23,0-42.82-13.61T886.53,94.73q0-16.59,7-28.62a45.7,45.7,0,0,1,19.94-18.35q12.91-6.32,30.29-6.32,26.64,0,41.44,12.93T1000,91Zm-25.26-17q0-12-8.58-18.75t-22.6-6.71q-14.41,0-23.09,7.11T911,84.07h63.74Z"/>
      <path d="M214.25,44.4h25.06v98.67H214.25Z"/>
      <rect x="214.34" width="25.06" height="25.06"/>
    </g>
    <g>
      <polygon points="0 71.61 0 143.22 71.49 143.22 142.97 143.22 142.97 71.61 71.49 71.61 0 71.61"/>
      <path d="M143,0H0A71.55,71.55,0,0,0,71.49,71.61,71.54,71.54,0,0,0,143,0Z"/>
    </g>
  </g>
</svg>
